%TF.GenerationSoftware,KiCad,Pcbnew,10.0.6*%
%TF.CreationDate,2026-10-04T19:39:40-07:00*%
%TF.ProjectId,LDO_Stable_JAFWAK,4c444f5f-5374-4616-926c-655f4a414657,rev?*%
%TF.SameCoordinates,Original*%
%TF.FileFunction,Plated,1,4,PTH,Drill*%
%TF.FilePolarity,Positive*%
%FSLAX46Y46*%
G04 Gerber Fmt 4.6, Leading zero omitted, Abs format (unit mm)*
G04 Created by KiCad (PCBNEW 10.0.6) date 2026-10-04 19:39:40*
%MOMM*%
%LPD*%
G01*
G04 APERTURE LIST*
%TA.AperFunction,ComponentDrill*%
%ADD10C,0.200000*%
%TD*%
%TA.AperFunction,ViaDrill*%
%ADD11C,0.304800*%
%TD*%
%TA.AperFunction,ViaDrill*%
%ADD12C,0.508000*%
%TD*%
%TA.AperFunction,ComponentDrill*%
%ADD13C,0.850000*%
%TD*%
%TA.AperFunction,ComponentDrill*%
%ADD14C,1.000000*%
%TD*%
%TA.AperFunction,ComponentDrill*%
%ADD15C,1.600000*%
%TD*%
%TA.AperFunction,ComponentDrill*%
%ADD16C,1.700000*%
%TD*%
G04 APERTURE END LIST*
D10*
%TO.C,U1*%
X139754000Y-88729000D03*
X139754000Y-90129000D03*
X139754000Y-91529000D03*
X139754000Y-92929000D03*
X141154000Y-88729000D03*
X141154000Y-90129000D03*
X141154000Y-91529000D03*
X141154000Y-92929000D03*
X142554000Y-88729000D03*
X142554000Y-90129000D03*
X142554000Y-91529000D03*
X142554000Y-92929000D03*
X143954000Y-88729000D03*
X143954000Y-90129000D03*
X143954000Y-91529000D03*
X143954000Y-92929000D03*
%TD*%
D11*
X105048000Y-92094000D03*
X115824000Y-101600000D03*
X116586000Y-112014000D03*
X118618000Y-110744000D03*
X119634000Y-108712000D03*
X120708987Y-112072987D03*
X121412000Y-107950000D03*
X123190000Y-110744000D03*
X123444000Y-108712000D03*
X125476000Y-82042000D03*
X134874000Y-85344000D03*
X135890000Y-100076000D03*
X136652000Y-100611000D03*
X137160000Y-112522000D03*
X137414000Y-88554000D03*
X137414000Y-93104000D03*
X138684000Y-94234000D03*
X139700000Y-86360000D03*
X140879000Y-95340000D03*
X141224000Y-97536000D03*
X141478000Y-86360000D03*
X142829000Y-86360000D03*
X142855252Y-112522000D03*
X143479000Y-95365000D03*
X144272000Y-86106000D03*
X145288000Y-94234000D03*
X145628000Y-87630000D03*
X146623999Y-95504000D03*
X147082000Y-89854000D03*
X147082000Y-91175000D03*
X148082000Y-112776000D03*
X149098000Y-86614000D03*
X150622000Y-98044000D03*
X152908000Y-96774000D03*
X153670000Y-112776000D03*
X157226000Y-95250000D03*
X159258000Y-97282000D03*
X160500000Y-94234000D03*
D12*
X78000000Y-78000000D03*
X78000000Y-81000000D03*
X78000000Y-93000000D03*
X78000000Y-96000000D03*
X78000000Y-108000000D03*
X81000000Y-93000000D03*
X81000000Y-96000000D03*
X81000000Y-108000000D03*
X81000000Y-111000000D03*
X81000000Y-114000000D03*
X81000000Y-117000000D03*
X81000000Y-120000000D03*
X84000000Y-78000000D03*
X84000000Y-81000000D03*
X84000000Y-93000000D03*
X84000000Y-96000000D03*
X84000000Y-108000000D03*
X86360000Y-116078000D03*
X87000000Y-78000000D03*
X87000000Y-81000000D03*
X87000000Y-87000000D03*
X87000000Y-90000000D03*
X87000000Y-93000000D03*
X87000000Y-96000000D03*
X87000000Y-102000000D03*
X87000000Y-105000000D03*
X87000000Y-108000000D03*
X87000000Y-111000000D03*
X87000000Y-120000000D03*
X90000000Y-78000000D03*
X90000000Y-81000000D03*
X90000000Y-93000000D03*
X90000000Y-102000000D03*
X90000000Y-105000000D03*
X90000000Y-108000000D03*
X90000000Y-111000000D03*
X90000000Y-120000000D03*
X93000000Y-78000000D03*
X93000000Y-81000000D03*
X93000000Y-87000000D03*
X93000000Y-90000000D03*
X93000000Y-102000000D03*
X93000000Y-105000000D03*
X93000000Y-108000000D03*
X93000000Y-120000000D03*
X93218000Y-110490000D03*
X96000000Y-78000000D03*
X96000000Y-81000000D03*
X96000000Y-84000000D03*
X96000000Y-87000000D03*
X96000000Y-90000000D03*
X96000000Y-96000000D03*
X96000000Y-102000000D03*
X96000000Y-105000000D03*
X96000000Y-108000000D03*
X96000000Y-120000000D03*
X99000000Y-87000000D03*
X99000000Y-96000000D03*
X99000000Y-102000000D03*
X99000000Y-105000000D03*
X99000000Y-108000000D03*
X99000000Y-111000000D03*
X99000000Y-120000000D03*
X100603000Y-94126000D03*
X100603000Y-95904000D03*
X102000000Y-78000000D03*
X102000000Y-102000000D03*
X102000000Y-120000000D03*
X105000000Y-81000000D03*
X105000000Y-87000000D03*
X105000000Y-96000000D03*
X105000000Y-102000000D03*
X105000000Y-108000000D03*
X105000000Y-111000000D03*
X105000000Y-120000000D03*
X108000000Y-78000000D03*
X108000000Y-81000000D03*
X108000000Y-84000000D03*
X108000000Y-87000000D03*
X108000000Y-102000000D03*
X108000000Y-108000000D03*
X108000000Y-120000000D03*
X110255000Y-89046000D03*
X110763000Y-94634000D03*
X111000000Y-87000000D03*
X111000000Y-96000000D03*
X111000000Y-102000000D03*
X111000000Y-111000000D03*
X111000000Y-120000000D03*
X112268000Y-108712000D03*
X112268000Y-110744000D03*
X114000000Y-96000000D03*
X114000000Y-102000000D03*
X114000000Y-120000000D03*
X115570000Y-88138000D03*
X117000000Y-81000000D03*
X120000000Y-78000000D03*
X120000000Y-81000000D03*
X120000000Y-87000000D03*
X120000000Y-90000000D03*
X120000000Y-93000000D03*
X120000000Y-96000000D03*
X120000000Y-102000000D03*
X123000000Y-78000000D03*
X123000000Y-105000000D03*
X126000000Y-78000000D03*
X126000000Y-84000000D03*
X126000000Y-102000000D03*
X126460000Y-87122000D03*
X126460000Y-90424000D03*
X126460000Y-93980000D03*
X128524000Y-109220000D03*
X129000000Y-117000000D03*
X132000000Y-114000000D03*
X134620000Y-109220000D03*
X135000000Y-81000000D03*
X135000000Y-111000000D03*
X135000000Y-117000000D03*
X138176000Y-83312000D03*
X140462000Y-109220000D03*
X141000000Y-111000000D03*
X142500000Y-96520000D03*
X144780000Y-83566000D03*
X145796000Y-109220000D03*
X147000000Y-117000000D03*
X147066000Y-78994000D03*
X150000000Y-84000000D03*
X150000000Y-102000000D03*
X152115185Y-97790000D03*
X152670000Y-107442000D03*
X155194000Y-88392000D03*
X156000000Y-108000000D03*
X156000000Y-111000000D03*
X156000000Y-114000000D03*
X156000000Y-117000000D03*
X156000000Y-120000000D03*
X159000000Y-84000000D03*
X159000000Y-87000000D03*
X159000000Y-114000000D03*
X161036000Y-101854000D03*
X162000000Y-114000000D03*
X163576000Y-107696000D03*
X165000000Y-114000000D03*
X165000000Y-120000000D03*
X165608000Y-83312000D03*
X168000000Y-84000000D03*
X168000000Y-93000000D03*
X168000000Y-99000000D03*
X168000000Y-108000000D03*
X168000000Y-111000000D03*
X168000000Y-114000000D03*
X168000000Y-117000000D03*
X168000000Y-120000000D03*
X171000000Y-84000000D03*
X171000000Y-96000000D03*
X171000000Y-108000000D03*
X171000000Y-114000000D03*
X171000000Y-120000000D03*
D13*
%TO.C,C12*%
X89563000Y-96647000D03*
%TO.C,C3*%
X89591000Y-83566000D03*
%TO.C,C12*%
X93063000Y-96647000D03*
%TO.C,C3*%
X93091000Y-83566000D03*
D14*
%TO.C,JP1*%
X98044000Y-89657000D03*
X98044000Y-92197000D03*
%TO.C,JP4*%
X102508000Y-99714000D03*
X105048000Y-99714000D03*
%TO.C,J13*%
X106426000Y-114554000D03*
X106426000Y-117094000D03*
%TO.C,JP4*%
X107588000Y-99714000D03*
%TO.C,J13*%
X108966000Y-114554000D03*
X108966000Y-117094000D03*
X111506000Y-114554000D03*
X111506000Y-117094000D03*
X114046000Y-114554000D03*
X114046000Y-117094000D03*
%TO.C,J6*%
X115733000Y-90424000D03*
X115733000Y-92964000D03*
X115733000Y-95504000D03*
X115733000Y-98044000D03*
%TO.C,J13*%
X116586000Y-114554000D03*
X116586000Y-117094000D03*
%TO.C,J6*%
X118273000Y-90424000D03*
X118273000Y-92964000D03*
X118273000Y-95504000D03*
X118273000Y-98044000D03*
%TO.C,J13*%
X119126000Y-114554000D03*
X119126000Y-117094000D03*
X121666000Y-114554000D03*
X121666000Y-117094000D03*
X124206000Y-114554000D03*
X124206000Y-117094000D03*
%TO.C,J1*%
X130302000Y-78994000D03*
X130302000Y-81534000D03*
X130302000Y-84074000D03*
X130302000Y-86614000D03*
X130302000Y-89154000D03*
X130302000Y-91694000D03*
X130302000Y-94234000D03*
X130302000Y-96774000D03*
%TO.C,J8*%
X130302000Y-101500000D03*
X130302000Y-104040000D03*
%TO.C,J1*%
X132842000Y-78994000D03*
X132842000Y-81534000D03*
X132842000Y-84074000D03*
X132842000Y-86614000D03*
X132842000Y-89154000D03*
X132842000Y-91694000D03*
X132842000Y-94234000D03*
X132842000Y-96774000D03*
%TO.C,J8*%
X132842000Y-101500000D03*
X132842000Y-104040000D03*
X135382000Y-101500000D03*
X135382000Y-104040000D03*
X137922000Y-101500000D03*
X137922000Y-104040000D03*
X140462000Y-101500000D03*
X140462000Y-104040000D03*
X143002000Y-101500000D03*
X143002000Y-104040000D03*
X145542000Y-101500000D03*
X145542000Y-104040000D03*
X148082000Y-101500000D03*
X148082000Y-104040000D03*
%TO.C,JP2*%
X152146000Y-85857000D03*
X152146000Y-88397000D03*
%TO.C,J10*%
X154500000Y-101510000D03*
X154500000Y-104050000D03*
%TO.C,JP3*%
X166000000Y-95500000D03*
X168540000Y-95500000D03*
D15*
%TO.C,J3*%
X99314000Y-78867000D03*
X99314000Y-83947000D03*
X101854000Y-81407000D03*
X104394000Y-78867000D03*
X104394000Y-83947000D03*
%TO.C,J2*%
X110490000Y-78867000D03*
X110490000Y-83947000D03*
X113030000Y-81407000D03*
X115570000Y-78867000D03*
X115570000Y-83947000D03*
%TO.C,J9*%
X165500000Y-100000000D03*
X165500000Y-105080000D03*
X168040000Y-102540000D03*
X170580000Y-100000000D03*
X170580000Y-105080000D03*
D16*
%TO.C,J4*%
X78462000Y-84568000D03*
X78462000Y-89648000D03*
%TO.C,J7*%
X78462000Y-98806000D03*
X78462000Y-103886000D03*
%TO.C,J11*%
X78462000Y-113030000D03*
X78462000Y-118110000D03*
%TO.C,J4*%
X83542000Y-84568000D03*
X83542000Y-89648000D03*
%TO.C,J7*%
X83542000Y-98806000D03*
X83542000Y-103886000D03*
%TO.C,J11*%
X83542000Y-113030000D03*
X83542000Y-118110000D03*
%TO.C,J5*%
X165378000Y-86500000D03*
X165378000Y-91580000D03*
%TO.C,J12*%
X165481000Y-111252000D03*
X165481000Y-116332000D03*
%TO.C,J5*%
X170458000Y-86500000D03*
X170458000Y-91580000D03*
%TO.C,J12*%
X170561000Y-111252000D03*
X170561000Y-116332000D03*
M02*
