%TF.GenerationSoftware,KiCad,Pcbnew,10.0.6*%
%TF.CreationDate,2026-10-04T17:09:51-07:00*%
%TF.ProjectId,LDO_Stable_JAFWAK,4c444f5f-5374-4616-926c-655f4a414657,rev?*%
%TF.SameCoordinates,Original*%
%TF.FileFunction,Soldermask,Bot*%
%TF.FilePolarity,Negative*%
%FSLAX46Y46*%
G04 Gerber Fmt 4.6, Leading zero omitted, Abs format (unit mm)*
G04 Created by KiCad (PCBNEW 10.0.6) date 2026-10-04 17:09:51*
%MOMM*%
%LPD*%
G01*
G04 APERTURE LIST*
G04 Aperture macros list*
%AMRoundRect*
0 Rectangle with rounded corners*
0 $1 Rounding radius*
0 $2 $3 $4 $5 $6 $7 $8 $9 X,Y pos of 4 corners*
0 Add a 4 corners polygon primitive as box body*
4,1,4,$2,$3,$4,$5,$6,$7,$8,$9,$2,$3,0*
0 Add four circle primitives for the rounded corners*
1,1,$1+$1,$2,$3*
1,1,$1+$1,$4,$5*
1,1,$1+$1,$6,$7*
1,1,$1+$1,$8,$9*
0 Add four rect primitives between the rounded corners*
20,1,$1+$1,$2,$3,$4,$5,0*
20,1,$1+$1,$4,$5,$6,$7,0*
20,1,$1+$1,$6,$7,$8,$9,0*
20,1,$1+$1,$8,$9,$2,$3,0*%
G04 Aperture macros list end*
%ADD10C,2.500000*%
%ADD11C,1.404000*%
%ADD12RoundRect,0.102000X-0.600000X-0.600000X0.600000X-0.600000X0.600000X0.600000X-0.600000X0.600000X0*%
%ADD13C,2.550000*%
%ADD14R,1.700000X1.700000*%
%ADD15C,1.700000*%
%ADD16C,2.604000*%
G04 APERTURE END LIST*
D10*
%TO.C,H1*%
X81280000Y-78994000D03*
%TD*%
D11*
%TO.C,C3*%
X93091000Y-83566000D03*
D12*
X89591000Y-83566000D03*
%TD*%
D13*
%TO.C,J11*%
X83542000Y-113030000D03*
X78462000Y-113030000D03*
X83542000Y-118110000D03*
X78462000Y-118110000D03*
%TD*%
D14*
%TO.C,J8*%
X148082000Y-101500000D03*
D15*
X148082000Y-104040000D03*
X145542000Y-101500000D03*
X145542000Y-104040000D03*
X143002000Y-101500000D03*
X143002000Y-104040000D03*
X140462000Y-101500000D03*
X140462000Y-104040000D03*
X137922000Y-101500000D03*
X137922000Y-104040000D03*
X135382000Y-101500000D03*
X135382000Y-104040000D03*
X132842000Y-101500000D03*
X132842000Y-104040000D03*
X130302000Y-101500000D03*
X130302000Y-104040000D03*
%TD*%
D14*
%TO.C,J10*%
X154500000Y-104050000D03*
D15*
X154500000Y-101510000D03*
%TD*%
D13*
%TO.C,J7*%
X83542000Y-98806000D03*
X78462000Y-98806000D03*
X83542000Y-103886000D03*
X78462000Y-103886000D03*
%TD*%
D14*
%TO.C,J1*%
X130302000Y-78994000D03*
D15*
X132842000Y-78994000D03*
X130302000Y-81534000D03*
X132842000Y-81534000D03*
X130302000Y-84074000D03*
X132842000Y-84074000D03*
X130302000Y-86614000D03*
X132842000Y-86614000D03*
X130302000Y-89154000D03*
X132842000Y-89154000D03*
X130302000Y-91694000D03*
X132842000Y-91694000D03*
X130302000Y-94234000D03*
X132842000Y-94234000D03*
X130302000Y-96774000D03*
X132842000Y-96774000D03*
%TD*%
D16*
%TO.C,J3*%
X101854000Y-81407000D03*
X99314000Y-78867000D03*
X104394000Y-78867000D03*
X99314000Y-83947000D03*
X104394000Y-83947000D03*
%TD*%
D13*
%TO.C,J5*%
X165378000Y-91580000D03*
X170458000Y-91580000D03*
X165378000Y-86500000D03*
X170458000Y-86500000D03*
%TD*%
D10*
%TO.C,H4*%
X168275000Y-123952000D03*
%TD*%
D14*
%TO.C,JP1*%
X98044000Y-89657000D03*
D15*
X98044000Y-92197000D03*
%TD*%
D14*
%TO.C,JP4*%
X107588000Y-99714000D03*
D15*
X105048000Y-99714000D03*
X102508000Y-99714000D03*
%TD*%
D10*
%TO.C,H2*%
X168910000Y-78994000D03*
%TD*%
D14*
%TO.C,JP3*%
X166000000Y-95500000D03*
D15*
X168540000Y-95500000D03*
%TD*%
D14*
%TO.C,JP2*%
X152146000Y-88397000D03*
D15*
X152146000Y-85857000D03*
%TD*%
D14*
%TO.C,J6*%
X115733000Y-90424000D03*
D15*
X118273000Y-90424000D03*
X115733000Y-92964000D03*
X118273000Y-92964000D03*
X115733000Y-95504000D03*
X118273000Y-95504000D03*
X115733000Y-98044000D03*
X118273000Y-98044000D03*
%TD*%
D13*
%TO.C,J4*%
X83542000Y-84568000D03*
X78462000Y-84568000D03*
X83542000Y-89648000D03*
X78462000Y-89648000D03*
%TD*%
D16*
%TO.C,J2*%
X113030000Y-81407000D03*
X110490000Y-78867000D03*
X115570000Y-78867000D03*
X110490000Y-83947000D03*
X115570000Y-83947000D03*
%TD*%
D14*
%TO.C,J13*%
X106426000Y-117094000D03*
D15*
X106426000Y-114554000D03*
X108966000Y-117094000D03*
X108966000Y-114554000D03*
X111506000Y-117094000D03*
X111506000Y-114554000D03*
X114046000Y-117094000D03*
X114046000Y-114554000D03*
X116586000Y-117094000D03*
X116586000Y-114554000D03*
X119126000Y-117094000D03*
X119126000Y-114554000D03*
X121666000Y-117094000D03*
X121666000Y-114554000D03*
X124206000Y-117094000D03*
X124206000Y-114554000D03*
%TD*%
D13*
%TO.C,J12*%
X165481000Y-118110000D03*
X170561000Y-118110000D03*
X165481000Y-113030000D03*
X170561000Y-113030000D03*
%TD*%
D16*
%TO.C,J9*%
X168040000Y-102540000D03*
X165500000Y-100000000D03*
X170580000Y-100000000D03*
X165500000Y-105080000D03*
X170580000Y-105080000D03*
%TD*%
D10*
%TO.C,H3*%
X81280000Y-123825000D03*
%TD*%
D11*
%TO.C,C12*%
X93063000Y-96647000D03*
D12*
X89563000Y-96647000D03*
%TD*%
M02*
